<svg id="Ebene_1" data-name="Ebene 1" xmlns="http://www.w3.org/2000/svg" width="248.06mm" height="143.2mm" viewBox="0 0 703.15 405.91">
  <defs>
    <style>
    <!--cls-2 san de schwoazn pfade-->

    <!--3. Färbiges-->
     .cls-1 {
         -webkit-animation: action 2.2s infinite  alternate;
        animation: action 2.2s infinite  alternate;
        transform-origin: center center;
        animation-delay: 1.3s;
        fill: #662d91;
      }

    <!--Opacity-->
      .cls-1, .cls-10, .cls-11, .cls-2, .cls-3, .cls-4, .cls-5, .cls-6, .cls-7, .cls-8, .cls-9 {
        opacity: 0.5;
      }

      <!--5. Färbiges-->
      .cls-3 {
        -webkit-animation: action2 2.5s infinite  alternate;
        animation: action2 2.5s infinite  alternate;
        transform-origin: center center;
        animation-delay: 1.4s;
        fill: #8a3dc4;
      }

     <!--7. Färbiges-->
     .cls-4 {
       -webkit-animation: action4 2.3s infinite  alternate;
        animation: action3 2.3s infinite  alternate;
        transform-origin: center center;
        animation-delay: 1s;
        fill: #73679e;
      }

     <!-- 9. Färbiges --> 
     .cls-5 {
       -webkit-animation: action 1.9s infinite  alternate;
        animation: action 1.9s infinite  alternate;
        transform-origin: center center;
        animation-delay: 0.9s;
        fill: #9389db;
      }

      <!-- 11. Färbiges -->
      .cls-6 {
        -webkit-animation: action3 1.7s infinite  alternate;
        animation: action3 1.7s infinite  alternate;
        transform-origin: center center;
        animation-delay: 2s;
        fill: #343475;
      }

      <!-- 1. Färbiges -->
      .cls-7 {
        -webkit-animation: action4 2.8s infinite  alternate;
        animation: action3 2.8s infinite  alternate;
        transform-origin: center center;
        animation-delay: 2.4s;

        fill: #9b2e7b;
      }

      <!-- 4. Färbiges -->
      .cls-8 {
        -webkit-animation: action2 2.1s infinite  alternate;
        animation: action2 2.1s infinite  alternate;
        transform-origin: center center;
        animation-delay: 1.4s;
        fill: #464a91;
      }

      <!--6. Färbiges-->.cls-9 {
        -webkit-animation: action 2s infinite  alternate;
        animation: action 2s infinite  alternate;
        transform-origin: center center;
        animation-delay: 0.5s;
        fill: #baa7ff;
      }

      <!-- 12. Färbiges-->
      .cls-10 {
        -webkit-animation: action4 2.7s infinite  alternate;
        animation: action3 2.7s infinite  alternate;
        transform-origin: center center;
        animation-delay: 1.4s;

    
        fill: #a84290;
      }

      <!-- 2.Färbiges -->
      .cls-11 {
         -webkit-animation: action3 2.4s infinite  alternate;
        animation: action3 2.4s infinite  alternate;
        transform-origin: center center;
        animation-delay: 2s;
        
        fill: #7750aa;
      }

      .cls-2{
         -webkit-animation: action3 4s infinite  alternate;
        animation: action3 4s infinite  alternate;
        transform-origin: center center;

        

      }
      
      @-webkit-keyframes action {
        0% { transform: scaleY(1); 
             transform-origin: center center;}
        100% { transform: scaleY(1.1); 
        transform-origin: center center;}
    }
    @keyframes action {
        0% { transform: scaleY(1); 
        transform-origin: center center;}
        100% { transform: scaleY(1.1);
        transform-origin: center center; }
    }

    @-webkit-keyframes action2 {
        0% { transform: scaleY(1); 
        transform-origin: center center;}
        100% { transform: scaleY(1.2); 
        transform-origin: center center;}
    }
    @keyframes action2 {
        0% { transform: scaleY(1); 
        transform-origin: center center;}
        100% { transform: scaleY(1.2); 
        transform-origin: center center;}
    }

    @-webkit-keyframes action3 {
        0% { transform: scaleY(1); 
        transform-origin: center center;}
        100% { transform: scaleY(1.15); 
        transform-origin: center center;}
    }
    @keyframes action3 {
        0% { transform: scaleY(1); 
        transform-origin: center center;}
        100% { transform: scaleY(1.15); 
        transform-origin: center center;}
    }
    @-webkit-keyframes action4 {
        0% { transform: scaleY(1); 
        transform-origin: center center;}
        100% { transform: scaleY(1); 
        transform-origin: center center;}
    }
    @keyframes action4 {
        0% { transform: scaleY(1); 
        transform-origin: center center;}
        100% { transform: scaleY(1); 
        transform-origin: center center;}
    }

 
    </style>
  </defs>
  <title>animate</title>
  <path class="cls-1" d="M137,194.73V110.29a9,9,0,1,1,17.92,0v84.44Z"/>
  <path class="cls-2" d="M190,99.06v95.67H172.09V99.06a9,9,0,1,1,17.92,0Z"/>
  <path class="cls-2" d="M208.48,194.73V130.87a9,9,0,0,1,17.93,0v63.86Z"/>
  <path class="cls-2" d="M262.21,187.29v7.44H244.28v-7.44a9,9,0,0,1,17.93,0Z"/>
  <path class="cls-2" d="M298.3,172.61v22.12H280.38V172.61a9,9,0,1,1,17.92,0Z"/>
  <path class="cls-3" d="M315.47,194.73V156a9,9,0,1,1,17.93,0v38.78Z"/>
  <path class="cls-2" d="M369.5,180.08v14.65H351.57V180.08a9,9,0,1,1,17.93,0Z"/>
  <path class="cls-4" d="M387.67,194.73V169.8a9,9,0,0,1,17.93,0v24.93Z"/>
  <path class="cls-2" d="M441.21,158.7v36H423.29v-36a9,9,0,1,1,17.92,0Z"/>
  <path class="cls-2" d="M457.91,194.73V147.4a9,9,0,1,1,17.92,0v47.33Z"/>
  <path class="cls-5" d="M511.45,135.88v58.85H493.52V135.88a9,9,0,1,1,17.93,0Z"/>
  <path class="cls-2" d="M529.14,194.73V147.4a9,9,0,0,1,17.93,0v47.33Z"/>
  <path class="cls-2" d="M564.71,194.73V169.8a9,9,0,1,1,17.92,0v24.93Z"/>
  <path class="cls-6" d="M600.27,194.73v-11.2a9,9,0,0,1,17.93,0v11.2Z"/>
  <path class="cls-2" d="M635.83,194.73v-5.87a9,9,0,1,1,17.93,0v5.87Z"/>
  <path class="cls-2" d="M100.89,194.73V135.12a9,9,0,0,1,17.93,0v59.61Z"/>
  <path class="cls-7" d="M83.72,160v34.76H65.79V160a9,9,0,1,1,17.93,0Z"/>
  <path class="cls-2" d="M29.7,194.73V180.57a9,9,0,1,1,17.92,0v14.16Z"/>
  <path class="cls-2" d="M172.49,194.8v84.44a9,9,0,0,1-17.92,0V194.8Z"/>
  <path class="cls-2" d="M208.09,290.47V194.8H190.17v95.67a9,9,0,1,0,17.92,0Z"/>
  <path class="cls-8" d="M244.49,194.8v63.86a9,9,0,0,1-17.93,0V194.8Z"/>
  <path class="cls-2" d="M279.29,202.24V194.8H261.36v7.44a9,9,0,0,0,17.93,0Z"/>
  <path class="cls-2" d="M314.38,216.92V194.8H296.46v22.12a9,9,0,1,0,17.92,0Z"/>
  <path class="cls-9" d="M350.48,194.8v38.78a9,9,0,0,1-17.93,0V194.8Z"/>
  <path class="cls-2" d="M386.58,209.45V194.8H368.65v14.65a9,9,0,1,0,17.93,0Z"/>
  <path class="cls-2" d="M421.68,194.8v24.93a9,9,0,0,1-17.93,0V194.8Z"/>
  <path class="cls-2" d="M457.29,230.83v-36H439.37v36a9,9,0,1,0,17.92,0Z"/>
  <path class="cls-4" d="M492.91,194.8v47.33a9,9,0,0,1-17.92,0V194.8Z"/>
  <path class="cls-3" d="M529.53,253.65V194.8H511.6v58.85a9,9,0,1,0,17.93,0Z"/>
  <path class="cls-2" d="M565.15,194.8v47.33a9,9,0,0,1-17.93,0V194.8Z"/>
  <path class="cls-2" d="M600.71,194.8v24.93a9,9,0,0,1-17.92,0V194.8Z"/>
  <path class="cls-2" d="M636.28,194.8V206a9,9,0,1,1-17.93,0V194.8Z"/>
  <path class="cls-10" d="M671.84,194.8v5.87a9,9,0,1,1-17.93,0V194.8Z"/>
  <path class="cls-11" d="M136.9,194.8v59.61a9,9,0,0,1-17.93,0V194.8Z"/>
  <path class="cls-2" d="M101.8,229.56V194.8H83.87v34.76a9,9,0,1,0,17.93,0Z"/>
  <path class="cls-2" d="M65.7,194.8V209a9,9,0,0,1-17.92,0V194.8Z"/>
</svg>
