<svg height="512" viewBox="0 0 128 128" width="512" xmlns="http://www.w3.org/2000/svg"><g><path d="m66.582 86.429a1.751 1.751 0 0 0 1-.316 30.1 30.1 0 0 0 4.312-3.4 9.948 9.948 0 0 0 2.406-3.813 1.751 1.751 0 0 0 -3.311-1.138 6.465 6.465 0 0 1 -1.57 2.476 27.713 27.713 0 0 1 -3.848 3.014 1.749 1.749 0 0 0 1.007 3.181z"/><path d="m122.737 16.272-11.009-11.009a1.8 1.8 0 0 0 -2.475 0l-2.489 2.489-1.337-1.336a1.75 1.75 0 0 0 -2.475 2.475l1.337 1.336-3.128 3.128-1.337-1.337a1.75 1.75 0 0 0 -2.474 2.476l1.336 1.336-1.733 1.733a1.748 1.748 0 0 0 -.428.7l-2.085 6.463-27.472 27.474c-9.39-6.636-19.437-6.824-25.915-.335a35.979 35.979 0 0 0 -4.1 5.135 39.129 39.129 0 0 1 -4.55 5.669c-2.485 2.484-4.722 3.073-7.556 3.819a26.013 26.013 0 0 0 -13.614 7.712c-5.345 5.342-7.442 11.876-6.065 18.9 1.2 6.134 5.04 12.58 11.1 18.641s12.506 9.89 18.64 11.094a21.463 21.463 0 0 0 4.139.412 20.535 20.535 0 0 0 14.753-6.48 26.009 26.009 0 0 0 7.711-13.614c.746-2.834 1.335-5.071 3.818-7.554a39.092 39.092 0 0 1 5.671-4.553 36.008 36.008 0 0 0 5.14-4.1c6.489-6.479 6.3-16.527-.335-25.915l27.472-27.472 6.463-2.086a1.741 1.741 0 0 0 .7-.428l1.734-1.733 1.336 1.336a1.75 1.75 0 1 0 2.474-2.475l-1.336-1.336 3.128-3.128 1.336 1.336a1.75 1.75 0 1 0 2.475-2.474l-1.336-1.337 2.489-2.489a1.749 1.749 0 0 0 -.003-2.473zm-66.59 59.467a9.765 9.765 0 0 0 -3.886-3.886l43.719-43.717 3.884 3.885zm-8.558-1.578a6.25 6.25 0 1 1 -4.42 1.831 6.206 6.206 0 0 1 4.42-1.831zm26.074 10.312a32.806 32.806 0 0 1 -4.669 3.7 42.522 42.522 0 0 0 -6.141 4.947c-3.154 3.152-3.955 6.2-4.73 9.139a22.725 22.725 0 0 1 -6.8 12.031c-4.542 4.545-9.841 6.262-15.745 5.1-5.451-1.069-11.274-4.574-16.839-10.134s-9.067-11.382-10.139-16.833c-1.16-5.906.558-11.2 5.105-15.746a22.723 22.723 0 0 1 12.03-6.8c2.943-.775 5.987-1.576 9.141-4.731a42.519 42.519 0 0 0 4.945-6.14 32.792 32.792 0 0 1 3.7-4.67c5.091-5.1 13.159-4.9 20.933.368l-16 16c-.288-.026-.579-.043-.872-.043a9.75 9.75 0 1 0 9.75 9.75c0-.293-.017-.584-.043-.872l16-16c5.274 7.774 5.472 15.843.374 20.934zm34.6-56.2-5.44 1.755-4.849-4.851 1.755-5.439 10.761-10.763 8.535 8.535-2.487 2.49-5.6 5.6z"/><path d="m28.713 87.974a1.749 1.749 0 0 0 -2.475 0l-4.238 4.242a1.749 1.749 0 0 0 0 2.475l11.309 11.309a1.749 1.749 0 0 0 2.475 0l4.242-4.242a1.749 1.749 0 0 0 0-2.475zm5.833 14.318-8.838-8.838 1.768-1.768 8.838 8.838z"/></g></svg>